<svg width="12" height="10" viewBox="0 0 12 10" fill="none" xmlns="http://www.w3.org/2000/svg">
<path d="M10.7354 1.175L10.0654 0.895V5.41L11.2804 2.48C11.4854 1.97 11.2504 1.385 10.7354 1.175ZM0.985371 3.025L3.46537 9C3.62037 9.385 3.98537 9.62 4.37037 9.63C4.50037 9.63 4.63537 9.605 4.76537 9.55L8.45037 8.025C8.82537 7.87 9.05537 7.5 9.06537 7.13C9.07037 7 9.04537 6.855 9.00037 6.725L6.50037 0.75C6.35537 0.365 5.98537 0.13 5.59537 0.125C5.46537 0.125 5.33537 0.155 5.21037 0.2L1.53037 1.725C1.02037 1.935 0.775371 2.52 0.985371 3.025ZM9.06037 1.125C9.06037 0.859784 8.95501 0.60543 8.76748 0.417893C8.57994 0.230357 8.32559 0.125 8.06037 0.125H7.33537L9.06037 4.295" fill="#4F93C9"/>
</svg>
