<svg width="12" height="12" viewBox="0 0 12 12" fill="none"
    xmlns="http://www.w3.org/2000/svg">
    <path d="M10.7354 2.175L10.0654 1.895V6.41L11.2804 3.48C11.4854 2.97 11.2504 2.385 10.7354 2.175ZM0.985371 4.025L3.46537 10C3.62037 10.385 3.98537 10.62 4.37037 10.63C4.50037 10.63 4.63537 10.605 4.76537 10.55L8.45037 9.025C8.82537 8.87 9.05537 8.5 9.06537 8.13C9.07037 8 9.04537 7.855 9.00037 7.725L6.50037 1.75C6.35537 1.365 5.98537 1.13 5.59537 1.125C5.46537 1.125 5.33537 1.155 5.21037 1.2L1.53037 2.725C1.02037 2.935 0.775371 3.52 0.985371 4.025ZM9.06037 2.125C9.06037 1.85978 8.95501 1.60543 8.76748 1.41789C8.57994 1.23036 8.32559 1.125 8.06037 1.125H7.33537L9.06037 5.295" fill="white"/>
    <path d="M10.7354 2.175L10.0654 1.895V6.41L11.2804 3.48C11.4854 2.97 11.2504 2.385 10.7354 2.175ZM0.985371 4.025L3.46537 10C3.62037 10.385 3.98537 10.62 4.37037 10.63C4.50037 10.63 4.63537 10.605 4.76537 10.55L8.45037 9.025C8.82537 8.87 9.05537 8.5 9.06537 8.13C9.07037 8 9.04537 7.855 9.00037 7.725L6.50037 1.75C6.35537 1.365 5.98537 1.13 5.59537 1.125C5.46537 1.125 5.33537 1.155 5.21037 1.2L1.53037 2.725C1.02037 2.935 0.775371 3.52 0.985371 4.025ZM9.06037 2.125C9.06037 1.85978 8.95501 1.60543 8.76748 1.41789C8.57994 1.23036 8.32559 1.125 8.06037 1.125H7.33537L9.06037 5.295" fill="#546E7D"/>
</svg>
