<svg width="16" height="17" viewBox="0 0 16 17" fill="none" xmlns="http://www.w3.org/2000/svg">
<path d="M13.9105 10.4864L5.31348 11.561L3.33438 4.25352H15.2L13.9105 10.4864Z" fill="#4F93C9"/>
<path d="M8.00005 14.375C8.00005 14.9963 7.49637 15.5 6.87505 15.5C6.25373 15.5 5.75005 14.9963 5.75005 14.375C5.75005 13.7537 6.25373 13.25 6.87505 13.25C7.49637 13.25 8.00005 13.7537 8.00005 14.375Z" fill="#4F93C9"/>
<path d="M14 14.375C14 14.9963 13.4964 15.5 12.875 15.5C12.2537 15.5 11.75 14.9963 11.75 14.375C11.75 13.7537 12.2537 13.25 12.875 13.25C13.4964 13.25 14 13.7537 14 14.375Z" fill="#4F93C9"/>
<path d="M0.800049 0.494568C0.385835 0.494568 0.0500488 0.830354 0.0500488 1.24457C0.0500488 1.65878 0.385835 1.99457 0.800049 1.99457V0.494568ZM2.51945 1.24457L3.24337 1.04851C3.15483 0.72158 2.85816 0.494568 2.51945 0.494568V1.24457ZM5.31348 11.561L4.58956 11.757C4.68726 12.1178 5.03565 12.3516 5.40651 12.3052L5.31348 11.561ZM13.9105 10.4864L14.0035 11.2306C14.322 11.1908 14.5799 10.9527 14.6449 10.6383L13.9105 10.4864ZM15.2 4.25352L15.9345 4.40548C15.9802 4.18459 15.9241 3.95487 15.7816 3.77996C15.6392 3.60504 15.4256 3.50352 15.2 3.50352V4.25352ZM3.33438 4.25352L2.61046 4.44959L3.33438 4.25352ZM0.800049 1.24457V1.99457H2.51945V1.24457V0.494568H0.800049V1.24457ZM5.31348 11.561L5.40651 12.3052L14.0035 11.2306L13.9105 10.4864L13.8175 9.74215L5.22045 10.8168L5.31348 11.561ZM13.9105 10.4864L14.6449 10.6383L15.9345 4.40548L15.2 4.25352L14.4656 4.10157L13.176 10.3344L13.9105 10.4864ZM2.51945 1.24457L1.79553 1.44063L2.61046 4.44959L3.33438 4.25352L4.0583 4.05746L3.24337 1.04851L2.51945 1.24457ZM3.33438 4.25352L2.61046 4.44959L4.58956 11.757L5.31348 11.561L6.0374 11.3649L4.0583 4.05746L3.33438 4.25352ZM15.2 4.25352V3.50352H3.33438V4.25352V5.00352H15.2V4.25352ZM8.00005 14.375H7.25005C7.25005 14.5821 7.08216 14.75 6.87505 14.75V15.5V16.25C7.91058 16.25 8.75005 15.4106 8.75005 14.375H8.00005ZM6.87505 15.5V14.75C6.66794 14.75 6.50005 14.5821 6.50005 14.375H5.75005H5.00005C5.00005 15.4106 5.83952 16.25 6.87505 16.25V15.5ZM5.75005 14.375H6.50005C6.50005 14.1679 6.66794 14 6.87505 14V13.25V12.5C5.83952 12.5 5.00005 13.3395 5.00005 14.375H5.75005ZM6.87505 13.25V14C7.08216 14 7.25005 14.1679 7.25005 14.375H8.00005H8.75005C8.75005 13.3395 7.91058 12.5 6.87505 12.5V13.25ZM14 14.375H13.25C13.25 14.5821 13.0822 14.75 12.875 14.75V15.5V16.25C13.9106 16.25 14.75 15.4106 14.75 14.375H14ZM12.875 15.5V14.75C12.6679 14.75 12.5 14.5821 12.5 14.375H11.75H11C11 15.4106 11.8395 16.25 12.875 16.25V15.5ZM11.75 14.375H12.5C12.5 14.1679 12.6679 14 12.875 14V13.25V12.5C11.8395 12.5 11 13.3395 11 14.375H11.75ZM12.875 13.25V14C13.0822 14 13.25 14.1679 13.25 14.375H14H14.75C14.75 13.3395 13.9106 12.5 12.875 12.5V13.25Z" fill="#4F93C9"/>
</svg>
