<svg width="17" height="16" viewBox="0 0 17 16" fill="none" xmlns="http://www.w3.org/2000/svg">
<path d="M6.71828 11.1996V4.79961H9.77282C10.1779 4.79961 10.5663 4.9441 10.8528 5.20129C11.1392 5.45849 11.3001 5.80731 11.3001 6.17104C11.3001 6.53477 11.1392 6.88359 10.8528 7.14079C10.5663 7.39798 10.1779 7.54247 9.77282 7.54247H5.7001M9.77282 9.37104H5.7001M14.9001 7.99961C14.9001 11.5342 12.0347 14.3996 8.5001 14.3996C4.96547 14.3996 2.1001 11.5342 2.1001 7.99961C2.1001 4.46499 4.96547 1.59961 8.5001 1.59961C12.0347 1.59961 14.9001 4.46499 14.9001 7.99961Z" stroke="#4F93C9" stroke-width="1.3" stroke-linecap="round" stroke-linejoin="round"/>
</svg>
