<svg width="9" height="8" viewBox="0 0 9 8" fill="none" xmlns="http://www.w3.org/2000/svg">
<path d="M8.33333 2.62813C8.33333 3.21979 8.10417 3.77396 7.6875 4.19063L4.41667 7.46145C4.4 7.47812 4.35417 7.51562 4.33333 7.52812C4.28333 7.56146 4.225 7.57812 4.16667 7.57812C4.10833 7.57812 4.04583 7.56146 3.99583 7.52812C3.97083 7.51146 3.95 7.49479 3.925 7.46979L0.649999 4.19063C0.229166 3.77396 0 3.21979 0 2.62813C0 2.03646 0.229166 1.48229 0.649999 1.06563C1.5125 0.207292 2.9125 0.207292 3.775 1.06563L4.16667 1.46146L4.5625 1.06563C5.425 0.207292 6.825 0.207292 7.68333 1.06563C8.10417 1.48229 8.33333 2.03646 8.33333 2.62813Z" fill="#7A76C5"/>
</svg>
