<svg width="24" height="24" viewBox="0 0 24 24" fill="none" xmlns="http://www.w3.org/2000/svg">
<path d="M22 11.39V18.1C22 20.25 20.32 22 18.25 22H14.5V17.2C14.5 16.56 13.98 16.04 13.34 16.04H10.66C10.02 16.04 9.51 16.56 9.51 17.2V22H5.75C3.68 22 2 20.25 2 18.1V11.39C2 10.24 2.49 9.15 3.33 8.4L9.58 2.92C10.99 1.69 13.02 1.69 14.42 2.92L20.67 8.4C21.52 9.15 22 10.24 22 11.39Z" fill="#1F3541"/>
<path d="M22 11.39V18.1C22 20.25 20.32 22 18.25 22H14.5V17.2C14.5 16.56 13.98 16.04 13.34 16.04H10.66C10.02 16.04 9.51 16.56 9.51 17.2V22H5.75C3.68 22 2 20.25 2 18.1V11.39C2 10.24 2.49 9.15 3.33 8.4L9.58 2.92C10.99 1.69 13.02 1.69 14.42 2.92L20.67 8.4C21.52 9.15 22 10.24 22 11.39Z" fill="url(#paint0_radial_4004_4340)"/>
<defs>
<radialGradient id="paint0_radial_4004_4340" cx="0" cy="0" r="1" gradientUnits="userSpaceOnUse" gradientTransform="translate(10 2) rotate(53.1301) scale(25 24.6651)">
<stop stop-color="#435F6E"/>
<stop offset="1" stop-color="#1F3541" stop-opacity="0"/>
</radialGradient>
</defs>
</svg>
