<svg width="13" height="13" viewBox="0 0 13 13" fill="none" xmlns="http://www.w3.org/2000/svg">
<path d="M7.14237 0.25C7.84549 0.251875 8.20237 0.255625 8.51049 0.264375L8.63174 0.26875C8.77174 0.27375 8.90987 0.28 9.07674 0.2875C9.74174 0.31875 10.1955 0.42375 10.5936 0.578125C11.0061 0.736875 11.3536 0.951875 11.7011 1.29875C12.0191 1.61108 12.265 1.98905 12.4217 2.40625C12.5761 2.80437 12.6811 3.25812 12.7124 3.92375C12.7199 4.09 12.7261 4.22813 12.7311 4.36875L12.7349 4.49C12.7442 4.7975 12.748 5.15438 12.7492 5.8575L12.7499 6.32375V7.1425C12.7514 7.59838 12.7466 8.05425 12.7355 8.51L12.7317 8.63125C12.7267 8.77187 12.7205 8.91 12.713 9.07625C12.6817 9.74187 12.5755 10.195 12.4217 10.5938C12.265 11.011 12.0191 11.3889 11.7011 11.7013C11.3888 12.0192 11.0108 12.2651 10.5936 12.4219C10.1955 12.5763 9.74174 12.6813 9.07674 12.7125L8.63174 12.7312L8.51049 12.735C8.20237 12.7437 7.84549 12.7481 7.14237 12.7494L6.67612 12.75H5.85799C5.40191 12.7516 4.94582 12.7468 4.48987 12.7356L4.36862 12.7319C4.22025 12.7263 4.07191 12.7198 3.92362 12.7125C3.25862 12.6813 2.80487 12.5763 2.40612 12.4219C1.98914 12.265 1.61139 12.0191 1.29924 11.7013C0.981083 11.389 0.734935 11.011 0.577992 10.5938C0.423617 10.1956 0.318617 9.74187 0.287367 9.07625L0.268617 8.63125L0.265492 8.51C0.253971 8.05426 0.248762 7.59838 0.249867 7.1425V5.8575C0.248137 5.40163 0.252721 4.94575 0.263617 4.49L0.267992 4.36875C0.272992 4.22813 0.279242 4.09 0.286742 3.92375C0.317992 3.25812 0.422992 2.805 0.577367 2.40625C0.734676 1.98887 0.981257 1.6109 1.29987 1.29875C1.61184 0.980968 1.98936 0.735046 2.40612 0.578125C2.80487 0.42375 3.25799 0.31875 3.92362 0.2875C4.08987 0.28 4.22862 0.27375 4.36862 0.26875L4.48987 0.265C4.94561 0.253895 5.40149 0.249103 5.85737 0.250625L7.14237 0.25ZM6.49987 3.375C5.67107 3.375 4.87621 3.70424 4.29016 4.29029C3.70411 4.87634 3.37487 5.6712 3.37487 6.5C3.37487 7.3288 3.70411 8.12366 4.29016 8.70971C4.87621 9.29576 5.67107 9.625 6.49987 9.625C7.32867 9.625 8.12352 9.29576 8.70958 8.70971C9.29563 8.12366 9.62487 7.3288 9.62487 6.5C9.62487 5.6712 9.29563 4.87634 8.70958 4.29029C8.12352 3.70424 7.32867 3.375 6.49987 3.375ZM6.49987 4.625C6.7461 4.62496 6.98992 4.67342 7.21742 4.76761C7.44492 4.8618 7.65164 4.99987 7.82578 5.17395C7.99992 5.34803 8.13807 5.55471 8.23233 5.78218C8.3266 6.00965 8.37514 6.25346 8.37518 6.49969C8.37522 6.74592 8.32676 6.98974 8.23257 7.21724C8.13838 7.44474 8.00031 7.65147 7.82623 7.8256C7.65214 7.99974 7.44547 8.13789 7.218 8.23215C6.99053 8.32642 6.74672 8.37496 6.50049 8.375C6.00321 8.375 5.5263 8.17746 5.17467 7.82583C4.82304 7.47419 4.62549 6.99728 4.62549 6.5C4.62549 6.00272 4.82304 5.52581 5.17467 5.17417C5.5263 4.82254 6.00321 4.625 6.50049 4.625M9.78174 2.4375C9.57454 2.4375 9.37583 2.51981 9.22931 2.66632C9.0828 2.81284 9.00049 3.01155 9.00049 3.21875C9.00049 3.42595 9.0828 3.62466 9.22931 3.77118C9.37583 3.91769 9.57454 4 9.78174 4C9.98894 4 10.1877 3.91769 10.3342 3.77118C10.4807 3.62466 10.563 3.42595 10.563 3.21875C10.563 3.01155 10.4807 2.81284 10.3342 2.66632C10.1877 2.51981 9.98894 2.4375 9.78174 2.4375Z" fill="url(#paint0_radial_2022_6415)"/>
<defs>
<radialGradient id="paint0_radial_2022_6415" cx="0" cy="0" r="1" gradientUnits="userSpaceOnUse" gradientTransform="translate(4.93701 -2.5625) rotate(66.2155) scale(22.471 22.5096)">
<stop stop-color="#2877B4"/>
<stop offset="1" stop-color="#B7DDFA"/>
</radialGradient>
</defs>
</svg>
