<svg width="20" height="20" viewBox="0 0 20 20" fill="none" xmlns="http://www.w3.org/2000/svg">
<path d="M9.99935 2.29175C6.92435 2.29175 4.41602 4.80008 4.41602 7.87508C4.41602 11.6917 9.41602 17.3084 9.62435 17.5417C9.82435 17.7667 10.1743 17.7667 10.3743 17.5417C10.591 17.3084 15.5827 11.6917 15.5827 7.87508C15.5827 4.80008 13.0743 2.29175 9.99935 2.29175Z" stroke="#C1D0DE" stroke-width="1.5" stroke-linecap="round" stroke-linejoin="round"/>
<path d="M10.3201 9.82112C11.3973 9.64965 12.1316 8.63737 11.9601 7.56013C11.7887 6.48289 10.7764 5.74863 9.69916 5.92009C8.62192 6.09156 7.88765 7.10383 8.05912 8.18107C8.23059 9.25831 9.24286 9.99259 10.3201 9.82112Z" stroke="#C1D0DE" stroke-width="1.5" stroke-linecap="round" stroke-linejoin="round"/>
</svg>
