<svg width="14" height="16" viewBox="0 0 14 16" fill="none" xmlns="http://www.w3.org/2000/svg">
<path d="M11.4248 6.73252V4.94002C11.4248 2.50252 9.43732 0.515015 6.99982 0.515015C4.56232 0.515015 2.57482 2.50252 2.57482 4.94002V6.73252C1.25482 7.01002 0.257324 8.18752 0.257324 9.59002V12.5825C0.257324 14.2025 1.56983 15.515 3.18983 15.515H10.8173C12.4298 15.515 13.7423 14.2025 13.7423 12.5825V9.59002C13.7423 8.18752 12.7448 7.01002 11.4248 6.73252ZM7.56232 11.525V12.635C7.56232 12.9425 7.30732 13.1975 6.99982 13.1975C6.69232 13.1975 6.43732 12.9425 6.43732 12.635V11.525C5.97982 11.3075 5.66482 10.85 5.66482 10.3175C5.66482 9.58251 6.26482 8.98252 6.99982 8.98252C7.73482 8.98252 8.33482 9.58251 8.33482 10.3175C8.33482 10.85 8.01982 11.3075 7.56232 11.525ZM3.69982 6.66502V4.94002C3.69982 3.11752 5.17732 1.64001 6.99982 1.64001C8.82232 1.64001 10.2998 3.11752 10.2998 4.94002V6.66502H3.69982Z" fill="#848484"/>
</svg>
