<svg width="20" height="20" viewBox="0 0 20 20" fill="none" xmlns="http://www.w3.org/2000/svg">
<path d="M15.9921 14.6916C14.5421 13.3916 12.3921 12.575 10.0005 12.575C7.60879 12.575 5.45879 13.4 4.00879 14.6916" stroke="#C1D0DE" stroke-width="1.5" stroke-linecap="round" stroke-linejoin="round"/>
<path d="M10.0001 9.99941C11.1829 9.99941 12.1417 9.04055 12.1417 7.85774C12.1417 6.67493 11.1829 5.71606 10.0001 5.71606C8.81725 5.71606 7.8584 6.67493 7.8584 7.85774C7.8584 9.04055 8.81725 9.99941 10.0001 9.99941Z" stroke="#C1D0DE" stroke-width="1.5" stroke-linecap="round" stroke-linejoin="round"/>
<path d="M10.0003 17.7084C14.2575 17.7084 17.7087 14.2573 17.7087 10.0001C17.7087 5.74289 14.2575 2.29175 10.0003 2.29175C5.74313 2.29175 2.29199 5.74289 2.29199 10.0001C2.29199 14.2573 5.74313 17.7084 10.0003 17.7084Z" stroke="#C1D0DE" stroke-width="1.5" stroke-linecap="round" stroke-linejoin="round"/>
</svg>
