<svg width="20" height="17" viewBox="0 0 20 17" fill="none" xmlns="http://www.w3.org/2000/svg">
<path d="M12 11.1169V10.9554M11.9996 8.61449V8.45296M11.9996 6.12272V5.96119M4.17647 1.38318H10.0009C10.034 2.5624 11.0003 3.50818 12.1875 3.50818C13.3747 3.50818 14.341 2.5624 14.3741 1.38318H15.8235C17.5778 1.38318 19 2.80533 19 4.55965V12.4404C19 14.1947 17.5778 15.6169 15.8235 15.6169H14.3741C14.341 14.4377 13.3747 13.4919 12.1875 13.4919C11.0003 13.4919 10.034 14.4377 10.0009 15.6169H4.17648C2.42217 15.6169 1.00001 14.1947 1.00001 12.4404L1 4.55965C1 2.80533 2.42215 1.38318 4.17647 1.38318Z" stroke="#C1D0DE" stroke-width="1.5" stroke-linecap="round" stroke-linejoin="round"/>
</svg>
