<svg width="12" height="12" viewBox="0 0 12 12" fill="none" xmlns="http://www.w3.org/2000/svg">
<path d="M6 1C3.245 1 1 3.245 1 6C1 8.755 3.245 11 6 11C8.755 11 11 8.755 11 6C11 3.245 8.755 1 6 1ZM8.28 5.165L6.22501 6.71C6.21501 6.715 6.2 6.72 6.19 6.73C6.175 6.735 6.16499 6.74 6.14999 6.745C6.10499 6.77 6.05 6.785 6 6.785C5.95 6.785 5.9 6.77 5.855 6.75C5.845 6.745 5.83501 6.74 5.82001 6.735C5.81001 6.73 5.79999 6.725 5.78999 6.72L4.28999 5.69C4.11999 5.575 4.07501 5.34 4.19501 5.17C4.31001 5 4.545 4.955 4.715 5.07L5.99001 5.945L7.83 4.565C7.995 4.44 8.23 4.475 8.355 4.64C8.48 4.805 8.445 5.04 8.28 5.165Z" fill="#546E7D"/>
</svg>
