<svg width="13" height="13" viewBox="0 0 13 13" fill="none"
    xmlns="http://www.w3.org/2000/svg">
    <path d="M12.2298 1.82562L11.3958 1.47212V7.17228L12.9081 3.47317C13.1633 2.8293 12.8708 2.09074 12.2298 1.82562ZM0.0936218 4.16123L3.18056 11.7046C3.37349 12.1907 3.82782 12.4874 4.30704 12.5C4.46886 12.5 4.6369 12.4684 4.79871 12.399L9.38555 10.4737C9.85232 10.278 10.1386 9.81089 10.1511 9.34377C10.1573 9.17964 10.1262 8.99658 10.0702 8.83246L6.95832 1.28906C6.77784 0.802998 6.31728 0.506312 5.83184 0.5C5.67002 0.5 5.50821 0.537875 5.35262 0.594687L0.772001 2.51999C0.137187 2.78511 -0.167772 3.52367 0.0936218 4.16123ZM10.1448 1.76249C10.1448 1.42766 10.0137 1.10654 9.78026 0.869776C9.54683 0.633012 9.23023 0.5 8.9001 0.5H7.99767L10.1448 5.7646" fill="#8398A9"/>
</svg>
