<svg width="11" height="9" viewBox="0 0 11 9" fill="none" xmlns="http://www.w3.org/2000/svg">
<path fill-rule="evenodd" clip-rule="evenodd" d="M9.85912 0.061587C9.99437 0.00706852 10.1424 -0.0117345 10.2878 0.0071347C10.4332 0.0260039 10.5707 0.0818559 10.6859 0.168877C10.8011 0.255898 10.8899 0.370907 10.943 0.501934C10.996 0.63296 11.0115 0.775214 10.9876 0.913889L9.74638 8.12491C9.62597 8.82048 8.82911 9.21938 8.16305 8.8729C7.6059 8.58303 6.77839 8.13644 6.03406 7.67045C5.6619 7.4372 4.52188 6.69025 4.66199 6.15874C4.7824 5.70429 6.69793 3.99654 7.79253 2.98122C8.22216 2.58232 8.02623 2.35221 7.51888 2.71913C6.259 3.63014 4.23619 5.01553 3.5674 5.40551C2.97741 5.74937 2.66983 5.80807 2.30205 5.74937C1.63106 5.64243 1.00878 5.4768 0.500892 5.27499C-0.185418 5.00242 -0.152033 4.09875 0.500345 3.83562L9.85912 0.061587Z" fill="url(#paint0_radial_2022_6430)"/>
<defs>
<radialGradient id="paint0_radial_2022_6430" cx="0" cy="0" r="1" gradientUnits="userSpaceOnUse" gradientTransform="translate(4.12332 -2.02494) rotate(61.6906) scale(16.8158 19.057)">
<stop stop-color="#2877B4"/>
<stop offset="1" stop-color="#B7DDFA"/>
</radialGradient>
</defs>
</svg>
